# xmcd
# 
# Track frame offsets:
#     225
#     16159
#     31965
#     44277
#     57020
#     66420
#     79887
#     91977
#     108086
#     121862
#     137221
#     151531
#     174771
#     184884
#     193292
#     203684
#     220718
#     237347
# 
# Disc length: 3295
# 
# Revision: 0
# Processed by: cddbd v1.5.2PL0 Copyright (c) Steve Scherf et al.
# Submitted via: fre:ac v1.0.17
# 
DISCID=e90cdc12
DTITLE=Various Artist - Unvergessene Klassiker der Musikgeschichte
DYEAR=0
DGENRE=Blues
TTITLE0=Marilyn Monroe - Diamonds are a girl's best friend
TTITLE1=Ella Fitzgerald - 's wonderful
TTITLE2=Louis Armstrong - When the saints go marching in
TTITLE3=Nat King Cole - Unforgettable
TTITLE4=Bing Crosby - When my baby smiles at me
TTITLE5=Marilyn Monroe - I wanna be loved by you
TTITLE6=Frank Sinatra - Come fly with me
TTITLE7=Glenn Miller - In the mood
TTITLE8=Dean Martin - You belong to me
TTITLE9=Louis Armstrong - Mack the knife
TTITLE10=Al Jolson - April showers
TTITLE11=Marilyn Monroe - My heart belongs to daddy
TTITLE12=Dean Martin - Memories are made of this
TTITLE13=Al Jolson - I'm sitting on the top of the world
TTITLE14=Dean Martin - Cha Cha d'amour
TTITLE15=Ella Fitzgerald - Cheek to cheek
TTITLE16=Frank Sinatra - My way
TTITLE17=Marilyn Monroe - The river of no return
EXTD=
EXTT0=
EXTT1=
EXTT2=
EXTT3=
EXTT4=
EXTT5=
EXTT6=
EXTT7=
EXTT8=
EXTT9=
EXTT10=
EXTT11=
EXTT12=
EXTT13=
EXTT14=
EXTT15=
EXTT16=
EXTT17=
PLAYORDER=
